<svg width="41" height="50" viewBox="0 0 41 50" fill="none" xmlns="http://www.w3.org/2000/svg">
<path d="M6.29295 46.2494L3.92383 40.4811C10.5986 38.7507 14.19 33.2364 15.1514 30.6956C14.5184 22.4552 18.8705 17.8543 21.1257 16.5839C22.4442 17.9024 23.7352 18.1633 24.2159 18.129C23.7009 22.5582 30.4992 21.8372 35.1345 19.9831L36.9886 24.3093C32.2915 27.6055 26.5163 26.7814 24.2159 25.9574C22.3206 27.7703 23.6322 28.9789 24.5249 29.3566C31.9413 32.6527 36.1989 39.5884 37.4006 42.6443L32.8683 45.2194C28.7481 39.2039 23.0485 36.1893 20.7137 35.4339C19.924 36.3953 17.809 38.9155 15.6664 41.3052C13.5239 43.6949 8.52474 45.5971 6.29295 46.2494Z" fill="#FBCE67"/>
<path fill-rule="evenodd" clip-rule="evenodd" d="M0 38.5189L3.20003 37.6893C8.25463 36.3788 11.2103 32.3628 12.2311 30.1962C11.8076 21.2091 16.6153 15.8144 19.7102 14.071L21.6173 12.9967L23.1651 14.5445C23.5551 14.9344 23.8878 15.1163 24.0842 15.1972C24.1308 15.2165 24.1691 15.2298 24.1982 15.2387L27.4828 15.0041L27.088 18.3998C27.2484 18.449 27.5154 18.5076 27.9279 18.534C29.567 18.6388 31.9793 18.1388 34.0633 17.3052L36.6767 16.2599L40.5618 25.3252L38.6453 26.6701C35.9925 28.5318 33.1039 29.3146 30.4879 29.5198C35.8513 33.4717 38.9965 38.8216 40.0847 41.5887L41 43.9163L31.9874 49.0371L30.4888 46.8492C27.632 42.6782 23.9332 40.1409 21.5549 38.925C20.5364 40.1294 19.1819 41.7046 17.8139 43.2305C16.3464 44.8673 14.1289 46.1393 12.2535 47.0326C10.3037 47.9615 8.35003 48.653 7.10217 49.0177L4.61108 49.7459L0 38.5189ZM20.7137 35.4339C23.0485 36.1892 28.7481 39.2039 32.8684 45.2194L37.4006 42.6442C36.1989 39.5884 31.9413 32.6527 24.5249 29.3566C24.2714 29.2493 23.984 29.075 23.746 28.8389C23.5941 28.6882 23.4623 28.5125 23.3721 28.3129C23.1059 27.7237 23.2023 26.9269 24.2159 25.9574C26.5164 26.7814 32.2915 27.6055 36.9886 24.3093L35.1345 19.9831C31.0263 21.6263 25.2191 22.3796 24.31 19.4461C24.1933 19.0697 24.1573 18.6326 24.2159 18.129C24.0662 18.1397 23.8378 18.1217 23.5545 18.0521C22.9282 17.8981 22.0335 17.4916 21.1257 16.5839C18.8705 17.8543 14.5184 22.4552 15.1514 30.6956C14.3299 32.8669 11.5875 37.2097 6.64164 39.5069C5.79998 39.8978 4.89452 40.2295 3.92384 40.4811L6.29297 46.2494C8.52475 45.5971 13.5239 43.6949 15.6665 41.3052C17.809 38.9154 19.924 36.3953 20.7137 35.4339ZM24.2603 15.2552C24.26 15.2551 24.2596 15.255 24.2592 15.255C24.2686 15.2563 24.2691 15.2569 24.2603 15.2552Z" fill="black"/>
<path d="M32.3533 9.06448C32.3533 12.4778 29.5863 15.2448 26.173 15.2448C22.7597 15.2448 19.9927 12.4778 19.9927 9.06448C19.9927 5.65118 22.7597 2.88416 26.173 2.88416C29.5863 2.88416 32.3533 5.65118 32.3533 9.06448Z" fill="#FBCE67"/>
<path fill-rule="evenodd" clip-rule="evenodd" d="M35.2375 9.06447C35.2375 14.0706 31.1792 18.1289 26.173 18.1289C21.1668 18.1289 17.1085 14.0706 17.1085 9.06447C17.1085 4.0583 21.1668 0 26.173 0C31.1792 0 35.2375 4.0583 35.2375 9.06447ZM26.173 15.2448C29.5863 15.2448 32.3533 12.4778 32.3533 9.06447C32.3533 5.65118 29.5863 2.88415 26.173 2.88415C22.7597 2.88415 19.9927 5.65118 19.9927 9.06447C19.9927 12.4778 22.7597 15.2448 26.173 15.2448Z" fill="black"/>
</svg>
