<svg width="77" height="32" viewBox="0 0 77 32" fill="none" xmlns="http://www.w3.org/2000/svg">
<path d="M16.752 23.256C17.3067 23.256 17.7653 23.4373 18.128 23.8C18.512 24.1413 18.704 24.5893 18.704 25.144C18.704 25.6773 18.512 26.1253 18.128 26.488C17.7653 26.8293 17.3067 27 16.752 27H6.352C5.79733 27 5.328 26.8187 4.944 26.456C4.58133 26.072 4.4 25.6027 4.4 25.048V6.552C4.4 5.99733 4.592 5.53867 4.976 5.176C5.36 4.792 5.85067 4.6 6.448 4.6C6.98133 4.6 7.44 4.792 7.824 5.176C8.208 5.53867 8.4 5.99733 8.4 6.552V23.256H16.752ZM48.7443 15.8C48.7443 17.912 48.2749 19.8533 47.3363 21.624C46.3976 23.3733 45.0963 24.76 43.4323 25.784C41.7896 26.808 39.9336 27.32 37.8643 27.32C35.7949 27.32 33.9283 26.808 32.2643 25.784C30.6216 24.76 29.3309 23.3733 28.3923 21.624C27.4749 19.8533 27.0163 17.912 27.0163 15.8C27.0163 13.688 27.4749 11.7573 28.3923 10.008C29.3309 8.23733 30.6216 6.84 32.2643 5.816C33.9283 4.792 35.7949 4.28 37.8643 4.28C39.9336 4.28 41.7896 4.792 43.4323 5.816C45.0963 6.84 46.3976 8.23733 47.3363 10.008C48.2749 11.7573 48.7443 13.688 48.7443 15.8ZM44.5843 15.8C44.5843 14.3707 44.2963 13.08 43.7203 11.928C43.1443 10.7547 42.3443 9.82667 41.3203 9.144C40.2963 8.46133 39.1443 8.12 37.8643 8.12C36.5629 8.12 35.4003 8.46133 34.3763 9.144C33.3736 9.80533 32.5843 10.7227 32.0083 11.896C31.4536 13.0693 31.1762 14.3707 31.1762 15.8C31.1762 17.2293 31.4536 18.5307 32.0083 19.704C32.5843 20.8773 33.3736 21.8053 34.3763 22.488C35.4003 23.1493 36.5629 23.48 37.8643 23.48C39.1443 23.48 40.2963 23.1387 41.3203 22.456C42.3443 21.7733 43.1443 20.856 43.7203 19.704C44.2963 18.5307 44.5843 17.2293 44.5843 15.8ZM70.8495 23.256C71.4042 23.256 71.8628 23.4373 72.2255 23.8C72.6095 24.1413 72.8015 24.5893 72.8015 25.144C72.8015 25.6773 72.6095 26.1253 72.2255 26.488C71.8628 26.8293 71.4042 27 70.8495 27H60.4495C59.8948 27 59.4255 26.8187 59.0415 26.456C58.6788 26.072 58.4975 25.6027 58.4975 25.048V6.552C58.4975 5.99733 58.6895 5.53867 59.0735 5.176C59.4575 4.792 59.9482 4.6 60.5455 4.6C61.0788 4.6 61.5375 4.792 61.9215 5.176C62.3055 5.53867 62.4975 5.99733 62.4975 6.552V23.256H70.8495Z" fill="white"/>
<path d="M18.128 23.8L15.2996 26.6284L15.3827 26.7115L15.4705 26.7896L18.128 23.8ZM18.128 26.488L20.8695 29.4008L20.8745 29.3961L18.128 26.488ZM4.944 26.456L2.03595 29.2025L2.11442 29.2856L2.19751 29.3641L4.944 26.456ZM4.976 5.176L7.7225 8.08405L7.76403 8.04482L7.80443 8.00443L4.976 5.176ZM7.824 5.176L4.99557 8.00443L5.03597 8.04482L5.0775 8.08405L7.824 5.176ZM8.4 23.256H4.4V27.256H8.4V23.256ZM16.752 27.256C16.5883 27.256 16.335 27.2279 16.0414 27.1118C15.7416 26.9933 15.4893 26.8182 15.2996 26.6284L20.9564 20.9716C19.7788 19.7939 18.2721 19.256 16.752 19.256V27.256ZM15.4705 26.7896C15.2474 26.5912 15.0316 26.3133 14.8834 25.9677C14.7385 25.6296 14.704 25.3339 14.704 25.144H22.704C22.704 23.5492 22.0971 21.9762 20.7855 20.8104L15.4705 26.7896ZM14.704 25.144C14.704 24.9204 14.7467 24.6234 14.8834 24.3043C15.0205 23.9844 15.2092 23.7427 15.3815 23.5799L20.8745 29.3961C22.0674 28.2694 22.704 26.7657 22.704 25.144H14.704ZM15.3865 23.5752C15.5867 23.3868 15.8373 23.2272 16.1171 23.1231C16.3894 23.0218 16.616 23 16.752 23V31C18.1999 31 19.6781 30.5221 20.8695 29.4008L15.3865 23.5752ZM16.752 23H6.352V31H16.752V23ZM6.352 23C6.51719 23 6.75556 23.0285 7.0256 23.1328C7.29909 23.2385 7.52415 23.3908 7.69049 23.5479L2.19751 29.3641C3.36409 30.4658 4.83248 31 6.352 31V23ZM7.85205 23.7095C8.00915 23.8758 8.16152 24.1009 8.26719 24.3744C8.37152 24.6444 8.4 24.8828 8.4 25.048H0.4C0.4 26.5675 0.934171 28.0359 2.03595 29.2025L7.85205 23.7095ZM8.4 25.048V6.552H0.4V25.048H8.4ZM8.4 6.552C8.4 6.74371 8.36495 7.02316 8.23376 7.33655C8.10076 7.65428 7.91096 7.90605 7.7225 8.08405L2.2295 2.26795C1.00146 3.42777 0.4 4.95877 0.4 6.552H8.4ZM7.80443 8.00443C7.61849 8.19037 7.37407 8.35765 7.0896 8.46897C6.81258 8.57737 6.58193 8.6 6.448 8.6V0.599998C4.90629 0.599998 3.36026 1.13488 2.14757 2.34757L7.80443 8.00443ZM6.448 8.6C6.22329 8.6 5.942 8.55706 5.64745 8.43376C5.35433 8.31106 5.13736 8.14621 4.99557 8.00443L10.6524 2.34757C9.53363 1.22877 8.06371 0.599998 6.448 0.599998V8.6ZM5.0775 8.08405C4.88904 7.90605 4.69924 7.65428 4.56624 7.33655C4.43505 7.02316 4.4 6.74371 4.4 6.552H12.4C12.4 4.95877 11.7985 3.42777 10.5705 2.26795L5.0775 8.08405ZM4.4 6.552V23.256H12.4V6.552H4.4ZM8.4 27.256H16.752V19.256H8.4V27.256ZM47.3363 21.624L50.8609 23.5153L50.8657 23.5064L50.8704 23.4975L47.3363 21.624ZM43.4323 25.784L41.3359 22.3774L41.326 22.3834L41.3162 22.3895L43.4323 25.784ZM32.2642 25.784L30.1482 29.1785L30.158 29.1846L30.1679 29.1906L32.2642 25.784ZM28.3923 21.624L24.8406 23.464L24.8539 23.4897L24.8676 23.5153L28.3923 21.624ZM28.3923 10.008L24.8581 8.13449L24.8539 8.14242L24.8498 8.15036L28.3923 10.008ZM32.2642 5.816L30.1679 2.40936L30.158 2.41542L30.1482 2.42153L32.2642 5.816ZM43.4323 5.816L41.3162 9.21047L41.326 9.21658L41.3359 9.22263L43.4323 5.816ZM47.3363 10.008L43.8021 11.8815L43.8069 11.8904L43.8116 11.8993L47.3363 10.008ZM43.7203 11.928L40.1296 13.6907L40.136 13.7038L40.1425 13.7169L43.7203 11.928ZM34.3763 9.144L36.5786 12.4831L36.5869 12.4777L36.5951 12.4722L34.3763 9.144ZM32.0083 11.896L28.4176 10.1333L28.4046 10.1598L28.392 10.1865L32.0083 11.896ZM32.0083 19.704L28.392 21.4135L28.4046 21.4402L28.4176 21.4667L32.0083 19.704ZM34.3763 22.488L32.1251 25.7944L32.1653 25.8218L32.2061 25.8482L34.3763 22.488ZM41.3203 22.456L43.5391 25.7842L41.3203 22.456ZM43.7203 19.704L47.298 21.4929L47.3045 21.4798L47.3109 21.4667L43.7203 19.704ZM44.7443 15.8C44.7443 17.2951 44.4183 18.5882 43.8021 19.7505L50.8704 23.4975C52.1315 21.1185 52.7443 18.5289 52.7443 15.8H44.7443ZM43.8116 19.7327C43.2013 20.8702 42.3883 21.7297 41.3359 22.3774L45.5286 29.1906C47.8042 27.7903 49.5939 25.8765 50.8609 23.5153L43.8116 19.7327ZM41.3162 22.3895C40.3526 22.9902 39.2393 23.32 37.8643 23.32V31.32C40.6278 31.32 43.2266 30.6258 45.5483 29.1785L41.3162 22.3895ZM37.8643 23.32C36.4895 23.32 35.3564 22.9901 34.3606 22.3774L30.1679 29.1906C32.5001 30.6259 35.1004 31.32 37.8643 31.32V23.32ZM34.3803 22.3895C33.346 21.7448 32.5342 20.8831 31.9169 19.7327L24.8676 23.5153C26.1277 25.8636 27.8972 27.7752 30.1482 29.1785L34.3803 22.3895ZM31.9439 19.784C31.3386 18.6155 31.0163 17.3105 31.0163 15.8H23.0163C23.0163 18.5135 23.6113 21.0912 24.8406 23.464L31.9439 19.784ZM31.0163 15.8C31.0163 14.2891 31.3386 13.0025 31.9347 11.8656L24.8498 8.15036C23.6112 10.5122 23.0163 13.0869 23.0163 15.8H31.0163ZM31.9264 11.8815C32.5469 10.711 33.3578 9.84783 34.3803 9.21046L30.1482 2.42153C27.8853 3.83217 26.1149 5.76369 24.8581 8.13449L31.9264 11.8815ZM34.3606 9.22263C35.3564 8.60985 36.4895 8.28 37.8643 8.28V0.279999C35.1004 0.279999 32.5001 0.974142 30.1679 2.40936L34.3606 9.22263ZM37.8643 8.28C39.2393 8.28 40.3526 8.60976 41.3162 9.21047L45.5483 2.42153C43.2266 0.974233 40.6278 0.279999 37.8643 0.279999V8.28ZM41.3359 9.22263C42.3764 9.86293 43.1885 10.7239 43.8021 11.8815L50.8704 8.13449C49.6067 5.75075 47.8162 3.81706 45.5286 2.40937L41.3359 9.22263ZM43.8116 11.8993C44.4183 13.03 44.7443 14.3046 44.7443 15.8H52.7443C52.7443 13.0714 52.1315 10.4847 50.8609 8.11673L43.8116 11.8993ZM48.5843 15.8C48.5843 13.8187 48.181 11.9052 47.298 10.1391L40.1425 13.7169C40.4115 14.2548 40.5843 14.9226 40.5843 15.8H48.5843ZM47.3109 10.1653C46.4438 8.39904 45.1872 6.91457 43.5391 5.8158L39.1014 12.4722C39.5013 12.7388 39.8447 13.1103 40.1296 13.6907L47.3109 10.1653ZM43.5391 5.8158C41.8307 4.67689 39.9005 4.12 37.8643 4.12V12.12C38.388 12.12 38.7618 12.2458 39.1014 12.4722L43.5391 5.8158ZM37.8643 4.12C35.8209 4.12 33.8771 4.66934 32.1574 5.8158L36.5951 12.4722C36.9234 12.2533 37.3049 12.12 37.8643 12.12V4.12ZM32.1739 5.80491C30.5243 6.89289 29.2791 8.37845 28.4176 10.1333L35.5989 13.6587C35.8894 13.0669 36.2228 12.7178 36.5786 12.4831L32.1739 5.80491ZM28.392 10.1865C27.56 11.9465 27.1763 13.8401 27.1763 15.8H35.1763C35.1763 14.9013 35.3472 14.1922 35.6245 13.6055L28.392 10.1865ZM27.1763 15.8C27.1763 17.7599 27.56 19.6535 28.392 21.4135L35.6245 17.9945C35.3472 17.4078 35.1763 16.6987 35.1763 15.8H27.1763ZM28.4176 21.4667C29.2744 23.2121 30.5056 24.6918 32.1251 25.7944L36.6274 19.1816C36.2415 18.9189 35.8941 18.5425 35.5989 17.9413L28.4176 21.4667ZM32.2061 25.8482C33.9211 26.9557 35.8475 27.48 37.8643 27.48V19.48C37.2784 19.48 36.8794 19.3429 36.5464 19.1278L32.2061 25.8482ZM37.8643 27.48C39.9005 27.48 41.8307 26.9231 43.5391 25.7842L39.1015 19.1278C38.7618 19.3542 38.388 19.48 37.8643 19.48V27.48ZM43.5391 25.7842C45.1697 24.6971 46.4257 23.2373 47.298 21.4929L40.1425 17.9151C39.8628 18.4747 39.5188 18.8495 39.1014 19.1278L43.5391 25.7842ZM47.3109 21.4667C48.1807 19.6949 48.5843 17.7824 48.5843 15.8H40.5843C40.5843 16.6763 40.4118 17.3664 40.1296 17.9413L47.3109 21.4667ZM72.2255 23.8L69.3971 26.6284L69.4802 26.7115L69.568 26.7896L72.2255 23.8ZM72.2255 26.488L74.967 29.4008L74.972 29.3961L72.2255 26.488ZM59.0415 26.456L56.1334 29.2025L56.2119 29.2856L56.295 29.3641L59.0415 26.456ZM59.0735 5.176L61.82 8.08405L61.8615 8.04482L61.9019 8.00443L59.0735 5.176ZM61.9215 5.176L59.0931 8.00443L59.1335 8.04482L59.175 8.08405L61.9215 5.176ZM62.4975 23.256H58.4975V27.256H62.4975V23.256ZM70.8495 27.256C70.6858 27.256 70.4325 27.2279 70.1389 27.1118C69.8391 26.9933 69.5868 26.8182 69.3971 26.6284L75.0539 20.9716C73.8763 19.7939 72.3696 19.256 70.8495 19.256V27.256ZM69.568 26.7896C69.3449 26.5912 69.1291 26.3133 68.9809 25.9677C68.836 25.6296 68.8015 25.3339 68.8015 25.144H76.8015C76.8015 23.5492 76.1946 21.9762 74.883 20.8104L69.568 26.7896ZM68.8015 25.144C68.8015 24.9204 68.8442 24.6234 68.9809 24.3043C69.118 23.9844 69.3067 23.7427 69.479 23.5799L74.972 29.3961C76.1649 28.2694 76.8015 26.7657 76.8015 25.144H68.8015ZM69.484 23.5752C69.6842 23.3868 69.9348 23.2272 70.2146 23.1231C70.4869 23.0218 70.7135 23 70.8495 23V31C72.2974 31 73.7756 30.5221 74.967 29.4008L69.484 23.5752ZM70.8495 23H60.4495V31H70.8495V23ZM60.4495 23C60.6147 23 60.8531 23.0285 61.1231 23.1328C61.3966 23.2385 61.6217 23.3908 61.788 23.5479L56.295 29.3641C57.4616 30.4658 58.93 31 60.4495 31V23ZM61.9496 23.7095C62.1067 23.8758 62.259 24.1009 62.3647 24.3744C62.469 24.6444 62.4975 24.8828 62.4975 25.048H54.4975C54.4975 26.5675 55.0317 28.0359 56.1334 29.2025L61.9496 23.7095ZM62.4975 25.048V6.552H54.4975V25.048H62.4975ZM62.4975 6.552C62.4975 6.74371 62.4624 7.02316 62.3313 7.33655C62.1983 7.65428 62.0085 7.90605 61.82 8.08405L56.327 2.26795C55.099 3.42777 54.4975 4.95877 54.4975 6.552H62.4975ZM61.9019 8.00443C61.716 8.19037 61.4716 8.35765 61.1871 8.46897C60.9101 8.57737 60.6794 8.6 60.5455 8.6V0.599998C59.0038 0.599998 57.4578 1.13488 56.2451 2.34757L61.9019 8.00443ZM60.5455 8.6C60.3208 8.6 60.0395 8.55706 59.7449 8.43376C59.4518 8.31106 59.2349 8.14621 59.0931 8.00443L64.7499 2.34757C63.6311 1.22877 62.1612 0.599998 60.5455 0.599998V8.6ZM59.175 8.08405C58.9865 7.90605 58.7967 7.65428 58.6637 7.33655C58.5326 7.02316 58.4975 6.74371 58.4975 6.552H66.4975C66.4975 4.95877 65.896 3.42777 64.668 2.26795L59.175 8.08405ZM58.4975 6.552V23.256H66.4975V6.552H58.4975ZM62.4975 27.256H70.8495V19.256H62.4975V27.256Z" fill="white"/>
</svg>
