<svg width="85" height="83" viewBox="0 0 85 83" fill="none" xmlns="http://www.w3.org/2000/svg">
<path d="M44 15L54 1L82 20L71.5 35L44 15Z" fill="white"/>
<path d="M27 7.5H44M32 13H38.5M28 18.5H37M44 15L54 1M44 15L71.5 35M44 15L58 14M54 1L82 20M54 1C56 7.16667 60.1 19.5 60.5 19.5C60.7181 19.5 65.0083 19.5991 70 19.7162M82 20L71.5 35M82 20C78.8164 19.9242 74.1641 19.8139 70 19.7162M71.5 35L70 19.7162" stroke="#807F7D"/>
<path d="M34.0302 38.4448L32.7012 35.209C36.4455 34.2382 38.4603 31.1448 38.9996 29.7195C38.6445 25.0968 41.0859 22.5158 42.351 21.8032C43.0906 22.5428 43.8149 22.6892 44.0845 22.6699C43.7956 25.1546 47.6093 24.7501 50.2096 23.71L51.2497 26.1369C48.6148 27.986 45.375 27.5237 44.0845 27.0615C43.0213 28.0785 43.7571 28.7565 44.2579 28.9683C48.4183 30.8174 50.8067 34.7082 51.4808 36.4224L48.9383 37.867C46.627 34.4924 43.4296 32.8013 42.1199 32.3776C41.6769 32.9169 40.4904 34.3306 39.2885 35.6712C38.0866 37.0118 35.2822 38.0789 34.0302 38.4448Z" fill="#9D9B9C"/>
<path fill-rule="evenodd" clip-rule="evenodd" d="M30.5 34.1082L32.2951 33.6428C35.1306 32.9076 36.7887 30.6547 37.3613 29.4393C37.1237 24.3978 39.8208 21.3715 41.5569 20.3935L42.6268 19.7908L43.4951 20.6591C43.7138 20.8778 43.9005 20.9799 44.0106 21.0253C44.0368 21.0361 44.0583 21.0435 44.0746 21.0486L45.9172 20.9169L45.6957 22.8218C45.7857 22.8494 45.9355 22.8823 46.1669 22.8971C47.0864 22.9559 48.4396 22.6754 49.6087 22.2078L51.0747 21.6214L53.2542 26.7068L52.1791 27.4613C50.6909 28.5056 49.0705 28.9448 47.603 29.0599C50.6117 31.2768 52.3761 34.278 52.9865 35.8303L53.5 37.136L48.4442 40.0086L47.6035 38.7812C46.0009 36.4414 43.926 35.0181 42.5918 34.336C42.0204 35.0116 41.2606 35.8953 40.4932 36.7512C39.6699 37.6695 38.426 38.383 37.3739 38.8842C36.2801 39.4052 35.1842 39.7931 34.4841 39.9978L33.0867 40.4062L30.5 34.1082ZM42.1199 32.3775C43.4297 32.8013 46.627 34.4924 48.9383 37.867L51.4808 36.4224C50.8067 34.7081 48.4183 30.8174 44.2579 28.9683C44.1156 28.9081 43.9545 28.8104 43.8209 28.6779C43.7357 28.5934 43.6618 28.4948 43.6112 28.3828C43.4618 28.0523 43.5159 27.6054 44.0845 27.0615C45.375 27.5237 48.6148 27.986 51.2497 26.1369L50.2096 23.71C47.905 24.6318 44.6473 25.0544 44.1373 23.4088C44.0719 23.1976 44.0517 22.9525 44.0845 22.6699C44.0005 22.6759 43.8724 22.6658 43.7135 22.6268C43.3622 22.5404 42.8603 22.3124 42.351 21.8032C41.0859 22.5158 38.6445 25.0968 38.9996 29.7195C38.5387 30.9375 37.0003 33.3737 34.2258 34.6624C33.7536 34.8817 33.2457 35.0678 32.7012 35.2089L34.0302 38.4448C35.2822 38.0788 38.0866 37.0118 39.2885 35.6712C40.4904 34.3306 41.6769 32.9168 42.1199 32.3775ZM44.1095 21.0578C44.1093 21.0578 44.1091 21.0577 44.1088 21.0577C44.1141 21.0584 44.1144 21.0587 44.1095 21.0578Z" fill="#807F7D"/>
<path d="M48.6495 17.5849C48.6495 19.4997 47.0972 21.0519 45.1825 21.0519C43.2677 21.0519 41.7155 19.4997 41.7155 17.5849C41.7155 15.6702 43.2677 14.1179 45.1825 14.1179C47.0972 14.1179 48.6495 15.6702 48.6495 17.5849Z" fill="#9D9B9C"/>
<path fill-rule="evenodd" clip-rule="evenodd" d="M50.2673 17.5849C50.2673 20.3933 47.9907 22.6699 45.1824 22.6699C42.374 22.6699 40.0974 20.3933 40.0974 17.5849C40.0974 14.7766 42.374 12.5 45.1824 12.5C47.9907 12.5 50.2673 14.7766 50.2673 17.5849ZM45.1824 21.052C47.0971 21.052 48.6494 19.4997 48.6494 17.5849C48.6494 15.6702 47.0971 14.1179 45.1824 14.1179C43.2676 14.1179 41.7154 15.6702 41.7154 17.5849C41.7154 19.4997 43.2676 21.052 45.1824 21.052Z" fill="#807F7D"/>
<path d="M28.864 57.192C31.728 57.192 33.136 55.72 33.136 53.768C33.136 49.784 27.008 50.92 27.008 49.24C27.008 48.6 27.552 48.184 28.512 48.184C29.6 48.184 30.752 48.552 31.616 49.352L32.88 47.656C31.824 46.68 30.416 46.168 28.72 46.168C26.208 46.168 24.672 47.64 24.672 49.416C24.672 53.432 30.816 52.136 30.816 53.992C30.816 54.616 30.224 55.176 28.96 55.176C27.488 55.176 26.32 54.504 25.568 53.72L24.32 55.496C25.328 56.504 26.8 57.192 28.864 57.192ZM38.2338 57.192C39.4338 57.192 40.6498 56.824 41.4178 56.12L40.5058 54.776C40.0098 55.256 39.1138 55.528 38.4578 55.528C37.1458 55.528 36.3778 54.744 36.2338 53.8H41.9778V53.32C41.9778 50.808 40.4258 49.08 38.1058 49.08C35.7698 49.08 34.1058 50.888 34.1058 53.128C34.1058 55.608 35.8818 57.192 38.2338 57.192ZM40.0258 52.392H36.2178C36.2978 51.624 36.8418 50.744 38.1058 50.744C39.4498 50.744 39.9618 51.656 40.0258 52.392ZM50.7095 57V51.544C50.7095 50.04 49.8935 49.08 48.1815 49.08C46.9335 49.08 45.9735 49.688 45.4775 50.264V49.272H43.4455V57H45.4775V51.784C45.8295 51.336 46.4375 50.888 47.2375 50.888C48.1015 50.888 48.6615 51.256 48.6615 52.328V57H50.7095ZM60.0711 57V46.328H58.0231V50.264C57.4151 49.464 56.5511 49.08 55.6391 49.08C53.6711 49.08 52.2151 50.616 52.2151 53.128C52.2151 55.72 53.7031 57.192 55.6391 57.192C56.5831 57.192 57.4151 56.776 58.0231 56.008V57H60.0711ZM56.2791 55.384C55.1111 55.384 54.3111 54.472 54.3111 53.128C54.3111 51.8 55.1111 50.888 56.2791 50.888C56.9511 50.888 57.6871 51.256 58.0231 51.768V54.504C57.6871 55.016 56.9511 55.384 56.2791 55.384Z" fill="#807F7D"/>
<rect y="72" width="85" height="11" fill="#636975"/>
<rect x="1" y="73" width="5" height="9" fill="#DF251D"/>
<rect x="7" y="73" width="5" height="9" fill="#EE4852"/>
<rect x="13" y="73" width="5" height="9" fill="#FB7A75"/>
<rect x="31" y="73" width="5" height="9" fill="#FFD78C"/>
<rect x="25" y="73" width="5" height="9" fill="#FFC559"/>
<rect x="37" y="73" width="5" height="9" fill="#88E1BC"/>
<rect x="55" y="73" width="5" height="9" fill="#40C28D"/>
<rect x="73" y="73" width="5" height="9" fill="#40C28D"/>
<rect x="43" y="73" width="5" height="9" fill="#6ADAAB"/>
<rect x="61" y="73" width="5" height="9" fill="#40C28D"/>
<rect x="79" y="73" width="5" height="9" fill="#40C28D"/>
<rect x="19" y="73" width="5" height="9" fill="#F8A811"/>
<rect x="49" y="73" width="5" height="9" fill="#40C28D"/>
<rect x="67" y="73" width="5" height="9" fill="#40C28D"/>
</svg>
