<svg width="85" height="83" viewBox="0 0 85 83" fill="none" xmlns="http://www.w3.org/2000/svg">
<path d="M44 15L54 1L82 20L71.5 35L44 15Z" fill="white"/>
<path d="M27 7.5H44M32 13H38.5M28 18.5H37M44 15L54 1M44 15L71.5 35M44 15L58 14M54 1L82 20M54 1C56 7.16667 60.1 19.5 60.5 19.5C60.7181 19.5 65.0083 19.5991 70 19.7162M82 20L71.5 35M82 20C78.8164 19.9242 74.1641 19.8139 70 19.7162M71.5 35L70 19.7162" stroke="#807F7D"/>
<path d="M34.0302 38.4448L32.7012 35.2089C36.4455 34.2382 38.4603 31.1448 38.9996 29.7195C38.6445 25.0968 41.0859 22.5158 42.351 21.8032C43.0906 22.5428 43.8149 22.6892 44.0845 22.6699C43.7956 25.1546 47.6093 24.7501 50.2096 23.71L51.2497 26.1369C48.6148 27.986 45.375 27.5237 44.0845 27.0615C43.0213 28.0785 43.7571 28.7564 44.2579 28.9683C48.4183 30.8174 50.8067 34.7081 51.4808 36.4224L48.9383 37.867C46.627 34.4924 43.4296 32.8013 42.1199 32.3775C41.6769 32.9169 40.4904 34.3306 39.2885 35.6712C38.0866 37.0118 35.2822 38.0789 34.0302 38.4448Z" fill="#FFC559"/>
<path fill-rule="evenodd" clip-rule="evenodd" d="M30.5 34.1082L32.2951 33.6428C35.1306 32.9077 36.7887 30.6547 37.3613 29.4393C37.1237 24.3978 39.8208 21.3715 41.5569 20.3935L42.6268 19.7908L43.4951 20.6591C43.7138 20.8779 43.9005 20.9799 44.0106 21.0253C44.0368 21.0361 44.0583 21.0435 44.0746 21.0486L45.9172 20.917L45.6957 22.8219C45.7857 22.8494 45.9355 22.8823 46.1669 22.8971C47.0864 22.9559 48.4396 22.6754 49.6087 22.2078L51.0747 21.6214L53.2542 26.7068L52.1791 27.4613C50.6909 28.5056 49.0705 28.9448 47.603 29.0599C50.6117 31.2768 52.3761 34.278 52.9865 35.8303L53.5 37.136L48.4442 40.0086L47.6035 38.7813C46.0009 36.4415 43.926 35.0181 42.5918 34.336C42.0204 35.0116 41.2606 35.8953 40.4932 36.7513C39.6699 37.6695 38.426 38.383 37.3739 38.8842C36.2801 39.4052 35.1842 39.7931 34.4841 39.9978L33.0867 40.4063L30.5 34.1082ZM42.1199 32.3776C43.4297 32.8013 46.627 34.4924 48.9383 37.867L51.4808 36.4224C50.8067 34.7082 48.4183 30.8174 44.2579 28.9683C44.1156 28.9081 43.9545 28.8104 43.8209 28.6779C43.7357 28.5934 43.6618 28.4948 43.6112 28.3828C43.4618 28.0523 43.5159 27.6054 44.0845 27.0615C45.375 27.5237 48.6148 27.986 51.2497 26.1369L50.2096 23.71C47.905 24.6319 44.6473 25.0544 44.1373 23.4088C44.0719 23.1977 44.0517 22.9525 44.0845 22.6699C44.0005 22.6759 43.8724 22.6658 43.7135 22.6268C43.3622 22.5404 42.8603 22.3124 42.351 21.8032C41.0859 22.5158 38.6445 25.0968 38.9996 29.7195C38.5387 30.9376 37.0003 33.3738 34.2258 34.6624C33.7536 34.8817 33.2457 35.0678 32.7012 35.2089L34.0302 38.4448C35.2822 38.0789 38.0866 37.0118 39.2885 35.6712C40.4904 34.3306 41.6769 32.9169 42.1199 32.3776ZM44.1095 21.0578C44.1093 21.0578 44.1091 21.0577 44.1088 21.0577C44.1141 21.0584 44.1144 21.0587 44.1095 21.0578Z" fill="#807F7D"/>
<path d="M48.6495 17.5849C48.6495 19.4997 47.0972 21.0519 45.1825 21.0519C43.2677 21.0519 41.7155 19.4997 41.7155 17.5849C41.7155 15.6702 43.2677 14.1179 45.1825 14.1179C47.0972 14.1179 48.6495 15.6702 48.6495 17.5849Z" fill="#FFC559"/>
<path fill-rule="evenodd" clip-rule="evenodd" d="M50.2673 17.5849C50.2673 20.3933 47.9907 22.6699 45.1824 22.6699C42.374 22.6699 40.0974 20.3933 40.0974 17.5849C40.0974 14.7766 42.374 12.5 45.1824 12.5C47.9907 12.5 50.2673 14.7766 50.2673 17.5849ZM45.1824 21.052C47.0971 21.052 48.6494 19.4997 48.6494 17.5849C48.6494 15.6702 47.0971 14.1179 45.1824 14.1179C43.2676 14.1179 41.7154 15.6702 41.7154 17.5849C41.7154 19.4997 43.2676 21.052 45.1824 21.052Z" fill="#807F7D"/>
<path d="M13.864 57.192C16.728 57.192 18.136 55.72 18.136 53.768C18.136 49.784 12.008 50.92 12.008 49.24C12.008 48.6 12.552 48.184 13.512 48.184C14.6 48.184 15.752 48.552 16.616 49.352L17.88 47.656C16.824 46.68 15.416 46.168 13.72 46.168C11.208 46.168 9.672 47.64 9.672 49.416C9.672 53.432 15.816 52.136 15.816 53.992C15.816 54.616 15.224 55.176 13.96 55.176C12.488 55.176 11.32 54.504 10.568 53.72L9.32 55.496C10.328 56.504 11.8 57.192 13.864 57.192ZM23.2338 57.192C24.4338 57.192 25.6498 56.824 26.4178 56.12L25.5058 54.776C25.0098 55.256 24.1138 55.528 23.4578 55.528C22.1458 55.528 21.3778 54.744 21.2338 53.8H26.9778V53.32C26.9778 50.808 25.4258 49.08 23.1058 49.08C20.7698 49.08 19.1058 50.888 19.1058 53.128C19.1058 55.608 20.8818 57.192 23.2338 57.192ZM25.0258 52.392H21.2178C21.2978 51.624 21.8418 50.744 23.1058 50.744C24.4498 50.744 24.9618 51.656 25.0258 52.392ZM35.7095 57V51.544C35.7095 50.04 34.8935 49.08 33.1815 49.08C31.9335 49.08 30.9735 49.688 30.4775 50.264V49.272H28.4455V57H30.4775V51.784C30.8295 51.336 31.4375 50.888 32.2375 50.888C33.1015 50.888 33.6615 51.256 33.6615 52.328V57H35.7095ZM45.0711 57V46.328H43.0231V50.264C42.4151 49.464 41.5511 49.08 40.6391 49.08C38.6711 49.08 37.2151 50.616 37.2151 53.128C37.2151 55.72 38.7031 57.192 40.6391 57.192C41.5831 57.192 42.4151 56.776 43.0231 56.008V57H45.0711ZM41.2791 55.384C40.1111 55.384 39.3111 54.472 39.3111 53.128C39.3111 51.8 40.1111 50.888 41.2791 50.888C41.9511 50.888 42.6871 51.256 43.0231 51.768V54.504C42.6871 55.016 41.9511 55.384 41.2791 55.384ZM48.0941 48.44C48.7661 48.44 49.3101 47.896 49.3101 47.224C49.3101 46.552 48.7661 46.024 48.0941 46.024C47.4381 46.024 46.8941 46.552 46.8941 47.224C46.8941 47.896 47.4381 48.44 48.0941 48.44ZM49.1181 57V49.272H47.0861V57H49.1181ZM58.397 57V51.544C58.397 50.04 57.581 49.08 55.869 49.08C54.621 49.08 53.661 49.688 53.165 50.264V49.272H51.133V57H53.165V51.784C53.517 51.336 54.125 50.888 54.925 50.888C55.789 50.888 56.349 51.256 56.349 52.328V57H58.397ZM63.5666 60.136C65.4706 60.136 67.7426 59.416 67.7426 56.488V49.272H65.7106V50.264C65.0866 49.464 64.2386 49.08 63.3106 49.08C61.3586 49.08 59.9026 50.488 59.9026 53.016C59.9026 55.592 61.3906 56.936 63.3106 56.936C64.2706 56.936 65.1026 56.504 65.7106 55.736V56.488C65.7106 58.056 64.5426 58.472 63.5666 58.472C62.6066 58.472 61.7746 58.2 61.1506 57.528L60.2386 58.984C61.2146 59.832 62.2546 60.136 63.5666 60.136ZM63.9666 55.144C62.7986 55.144 61.9986 54.344 61.9986 53.016C61.9986 51.688 62.7986 50.888 63.9666 50.888C64.6226 50.888 65.3586 51.256 65.7106 51.752V54.264C65.3586 54.76 64.6226 55.144 63.9666 55.144ZM70.798 57.176C71.502 57.176 72.094 56.584 72.094 55.88C72.094 55.176 71.502 54.584 70.798 54.584C70.094 54.584 69.502 55.176 69.502 55.88C69.502 56.584 70.094 57.176 70.798 57.176ZM74.9074 57.176C75.6114 57.176 76.2034 56.584 76.2034 55.88C76.2034 55.176 75.6114 54.584 74.9074 54.584C74.2034 54.584 73.6114 55.176 73.6114 55.88C73.6114 56.584 74.2034 57.176 74.9074 57.176ZM79.0168 57.176C79.7208 57.176 80.3128 56.584 80.3128 55.88C80.3128 55.176 79.7208 54.584 79.0168 54.584C78.3128 54.584 77.7208 55.176 77.7208 55.88C77.7208 56.584 78.3128 57.176 79.0168 57.176Z" fill="#2D333A"/>
<rect y="72" width="85" height="11" fill="#636975"/>
<rect x="1" y="73" width="5" height="9" fill="#DF251D"/>
<rect x="7" y="73" width="5" height="9" fill="#EE4852"/>
<rect x="13" y="73" width="5" height="9" fill="#FB7A75"/>
<rect x="31" y="73" width="5" height="9" fill="#FFD78C"/>
<rect x="25" y="73" width="5" height="9" fill="#FFC559"/>
<rect x="37" y="73" width="5" height="9" fill="#88E1BC"/>
<rect x="55" y="73" width="5" height="9" fill="#40C28D"/>
<rect x="73" y="73" width="5" height="9" fill="#9D9B9C"/>
<rect x="43" y="73" width="5" height="9" fill="#6ADAAB"/>
<rect x="61" y="73" width="5" height="9" fill="#9D9B9C"/>
<rect x="79" y="73" width="5" height="9" fill="#9D9B9C"/>
<rect x="19" y="73" width="5" height="9" fill="#F8A811"/>
<rect x="49" y="73" width="5" height="9" fill="#40C28D"/>
<rect x="67" y="73" width="5" height="9" fill="#9D9B9C"/>
</svg>
